<svg width="16" height="15" viewBox="0 0 16 15" fill="none" xmlns="http://www.w3.org/2000/svg">
<path fill-rule="evenodd" clip-rule="evenodd" d="M3 0C2.20435 0 1.44129 0.31607 0.87868 0.87868C0.31607 1.44129 0 2.20435 0 3L0 14.25C0.000130387 14.3982 0.0441878 14.5431 0.126608 14.6663C0.209028 14.7895 0.326113 14.8856 0.463076 14.9423C0.60004 14.999 0.750737 15.0138 0.896136 14.985C1.04154 14.9561 1.17511 14.8848 1.28 14.78L4.063 12H13C13.7956 12 14.5587 11.6839 15.1213 11.1213C15.6839 10.5587 16 9.79565 16 9V3C16 2.20435 15.6839 1.44129 15.1213 0.87868C14.5587 0.31607 13.7956 0 13 0H3ZM1.5 3C1.5 2.60218 1.65804 2.22064 1.93934 1.93934C2.22064 1.65804 2.60218 1.5 3 1.5H13C13.3978 1.5 13.7794 1.65804 14.0607 1.93934C14.342 2.22064 14.5 2.60218 14.5 3V9C14.5 9.39782 14.342 9.77936 14.0607 10.0607C13.7794 10.342 13.3978 10.5 13 10.5H3.443L3.223 10.72L1.5 12.44V3ZM11 7C11.2652 7 11.5196 6.89464 11.7071 6.70711C11.8946 6.51957 12 6.26522 12 6C12 5.73478 11.8946 5.48043 11.7071 5.29289C11.5196 5.10536 11.2652 5 11 5C10.7348 5 10.4804 5.10536 10.2929 5.29289C10.1054 5.48043 10 5.73478 10 6C10 6.26522 10.1054 6.51957 10.2929 6.70711C10.4804 6.89464 10.7348 7 11 7ZM9 6C9 6.26522 8.89464 6.51957 8.70711 6.70711C8.51957 6.89464 8.26522 7 8 7C7.73478 7 7.48043 6.89464 7.29289 6.70711C7.10536 6.51957 7 6.26522 7 6C7 5.73478 7.10536 5.48043 7.29289 5.29289C7.48043 5.10536 7.73478 5 8 5C8.26522 5 8.51957 5.10536 8.70711 5.29289C8.89464 5.48043 9 5.73478 9 6ZM5 7C5.26522 7 5.51957 6.89464 5.70711 6.70711C5.89464 6.51957 6 6.26522 6 6C6 5.73478 5.89464 5.48043 5.70711 5.29289C5.51957 5.10536 5.26522 5 5 5C4.73478 5 4.48043 5.10536 4.29289 5.29289C4.10536 5.48043 4 5.73478 4 6C4 6.26522 4.10536 6.51957 4.29289 6.70711C4.48043 6.89464 4.73478 7 5 7Z" fill="black"/>
</svg>
