<svg width="18" height="20" viewBox="0 0 18 20" fill="none" xmlns="http://www.w3.org/2000/svg">
<path d="M15 20C14.1667 20 13.4583 19.7083 12.875 19.125C12.2917 18.5417 12 17.8333 12 17C12 16.9 12.025 16.6667 12.075 16.3L5.05 12.2C4.78333 12.45 4.475 12.646 4.125 12.788C3.775 12.93 3.4 13.0007 3 13C2.16667 13 1.45833 12.7083 0.875 12.125C0.291667 11.5417 0 10.8333 0 10C0 9.16667 0.291667 8.45833 0.875 7.875C1.45833 7.29167 2.16667 7 3 7C3.4 7 3.775 7.071 4.125 7.213C4.475 7.355 4.78333 7.55067 5.05 7.8L12.075 3.7C12.0417 3.58333 12.021 3.471 12.013 3.363C12.005 3.255 12.0007 3.134 12 3C12 2.16667 12.2917 1.45833 12.875 0.875C13.4583 0.291667 14.1667 0 15 0C15.8333 0 16.5417 0.291667 17.125 0.875C17.7083 1.45833 18 2.16667 18 3C18 3.83333 17.7083 4.54167 17.125 5.125C16.5417 5.70833 15.8333 6 15 6C14.6 6 14.225 5.929 13.875 5.787C13.525 5.645 13.2167 5.44933 12.95 5.2L5.925 9.3C5.95833 9.41667 5.97933 9.52933 5.988 9.638C5.99667 9.74667 6.00067 9.86733 6 10C5.99933 10.1327 5.99533 10.2537 5.988 10.363C5.98067 10.4723 5.95967 10.5847 5.925 10.7L12.95 14.8C13.2167 14.55 13.525 14.3543 13.875 14.213C14.225 14.0717 14.6 14.0007 15 14C15.8333 14 16.5417 14.2917 17.125 14.875C17.7083 15.4583 18 16.1667 18 17C18 17.8333 17.7083 18.5417 17.125 19.125C16.5417 19.7083 15.8333 20 15 20ZM15 18C15.2833 18 15.521 17.9043 15.713 17.713C15.905 17.5217 16.0007 17.284 16 17C15.9993 16.716 15.9033 16.4787 15.712 16.288C15.5207 16.0973 15.2833 16.0013 15 16C14.7167 15.9987 14.4793 16.0947 14.288 16.288C14.0967 16.4813 14.0007 16.7187 14 17C13.9993 17.2813 14.0953 17.519 14.288 17.713C14.4807 17.907 14.718 18.0027 15 18ZM3 11C3.28333 11 3.521 10.904 3.713 10.712C3.905 10.52 4.00067 10.2827 4 10C3.99933 9.71733 3.90333 9.48 3.712 9.288C3.52067 9.096 3.28333 9 3 9C2.71667 9 2.47933 9.096 2.288 9.288C2.09667 9.48 2.00067 9.71733 2 10C1.99933 10.2827 2.09533 10.5203 2.288 10.713C2.48067 10.9057 2.718 11.0013 3 11ZM15 4C15.2833 4 15.521 3.904 15.713 3.712C15.905 3.52 16.0007 3.28267 16 3C15.9993 2.71733 15.9033 2.48 15.712 2.288C15.5207 2.096 15.2833 2 15 2C14.7167 2 14.4793 2.096 14.288 2.288C14.0967 2.48 14.0007 2.71733 14 3C13.9993 3.28267 14.0953 3.52033 14.288 3.713C14.4807 3.90567 14.718 4.00133 15 4Z" fill="black"/>
</svg>
